<svg width="111" height="18" viewBox="0 0 111 18" fill="none" xmlns="http://www.w3.org/2000/svg">
<path d="M3.76172 17H1.04297C0.980469 17 0.949219 16.9609 0.949219 16.8828L0.996094 0.394531C0.996094 0.332031 1.02734 0.300781 1.08984 0.300781H4.01953C4.08203 0.300781 4.13672 0.332031 4.18359 0.394531L6.375 3.55859L8.55469 0.394531C8.60156 0.332031 8.66016 0.300781 8.73047 0.300781H11.6719C11.7422 0.300781 11.7773 0.332031 11.7773 0.394531L11.8242 16.8828C11.8242 16.9609 11.793 17 11.7305 17H9.01172C8.94922 17 8.91797 16.9609 8.91797 16.8828L8.89453 4.63672L6.375 8.29297L3.87891 4.63672L3.85547 16.8828C3.85547 16.9609 3.82422 17 3.76172 17ZM13.0312 16.8828L16.0078 0.394531C16.0234 0.332031 16.0625 0.300781 16.125 0.300781H19.6055C19.668 0.300781 19.707 0.332031 19.7227 0.394531L22.582 16.8828C22.5898 16.9609 22.5586 17 22.4883 17H19.8281C19.75 17 19.707 16.9609 19.6992 16.8828L19.4414 15.125H16.1719L15.9141 16.8828C15.9062 16.9609 15.8672 17 15.7969 17H13.125C13.0625 17 13.0312 16.9609 13.0312 16.8828ZM17.7305 5.82031L16.6523 12.5586H18.9609L17.9766 5.82031L17.8359 4.92969L17.7305 5.82031ZM28.5 16.9766L24.1992 17C24.1211 17 24.082 16.9609 24.082 16.8828L24.1289 0.394531C24.1289 0.332031 24.1602 0.300781 24.2227 0.300781L28.7109 0.277344C29.6016 0.253906 30.4062 0.457031 31.125 0.886719C31.8516 1.31641 32.4297 1.89844 32.8594 2.63281C33.2969 3.35938 33.5156 4.16406 33.5156 5.04688V11.9375C33.5156 12.8594 33.293 13.7031 32.8477 14.4688C32.3945 15.2266 31.793 15.832 31.043 16.2852C30.293 16.7305 29.4453 16.9609 28.5 16.9766ZM28.7109 3.14844L27.0352 3.17188L27.0117 14.0469H28.5C29.0938 14.0469 29.5938 13.8398 30 13.4258C30.4062 13.0117 30.6094 12.5156 30.6094 11.9375V5.02344C30.6094 4.51562 30.4219 4.07422 30.0469 3.69922C29.6719 3.31641 29.2266 3.13281 28.7109 3.14844ZM39.8203 17.2344C38.9766 17.2344 38.1953 17.0156 37.4766 16.5781C36.7578 16.1406 36.1836 15.5547 35.7539 14.8203C35.332 14.0781 35.1211 13.2695 35.1211 12.3945L35.168 0.394531C35.168 0.332031 35.1992 0.300781 35.2617 0.300781H37.957C38.0195 0.300781 38.0508 0.332031 38.0508 0.394531V12.3945C38.0508 12.9336 38.2227 13.3945 38.5664 13.7773C38.9102 14.1523 39.3281 14.3398 39.8203 14.3398C40.3359 14.3398 40.7656 14.1523 41.1094 13.7773C41.4531 13.3945 41.625 12.9336 41.625 12.3945V0.394531C41.625 0.332031 41.6562 0.300781 41.7188 0.300781H44.4141C44.4766 0.300781 44.5078 0.332031 44.5078 0.394531L44.5547 12.3945C44.5547 13.2773 44.3438 14.0898 43.9219 14.832C43.4922 15.5664 42.9219 16.1523 42.2109 16.5898C41.5 17.0195 40.7031 17.2344 39.8203 17.2344ZM49.2539 17H46.5352C46.4727 17 46.4414 16.9609 46.4414 16.8828L46.4883 0.394531C46.4883 0.332031 46.5195 0.300781 46.582 0.300781H51.4336C52.3008 0.300781 53.0977 0.511719 53.8242 0.933594C54.5508 1.35547 55.1289 1.92188 55.5586 2.63281C55.9961 3.34375 56.2148 4.14844 56.2148 5.04688C56.2148 5.63281 56.125 6.16406 55.9453 6.64062C55.7656 7.11719 55.5547 7.51953 55.3125 7.84766C55.0781 8.17578 54.8633 8.41797 54.668 8.57422C55.5352 9.53516 55.9688 10.6641 55.9688 11.9609L55.9922 16.8828C55.9922 16.9609 55.9531 17 55.875 17H53.1562C53.0938 17 53.0625 16.9766 53.0625 16.9297V11.9609C53.0625 11.3828 52.8594 10.8828 52.4531 10.4609C52.0469 10.0391 51.5469 9.82812 50.9531 9.82812H49.3711L49.3477 16.8828C49.3477 16.9609 49.3164 17 49.2539 17ZM51.4336 3.17188H49.3711V6.94531H51.4336C51.9258 6.94531 52.3633 6.76172 52.7461 6.39453C53.1367 6.02734 53.332 5.57812 53.332 5.04688C53.332 4.53906 53.1445 4.10156 52.7695 3.73438C52.3945 3.35938 51.9492 3.17188 51.4336 3.17188ZM56.7188 16.8828L59.6953 0.394531C59.7109 0.332031 59.75 0.300781 59.8125 0.300781H63.293C63.3555 0.300781 63.3945 0.332031 63.4102 0.394531L66.2695 16.8828C66.2773 16.9609 66.2461 17 66.1758 17H63.5156C63.4375 17 63.3945 16.9609 63.3867 16.8828L63.1289 15.125H59.8594L59.6016 16.8828C59.5938 16.9609 59.5547 17 59.4844 17H56.8125C56.75 17 56.7188 16.9609 56.7188 16.8828ZM61.418 5.82031L60.3398 12.5586H62.6484L61.6641 5.82031L61.5234 4.92969L61.418 5.82031Z" fill="#3C91A4"/>
<path d="M70.582 17H67.8633C67.8008 17 67.7695 16.9609 67.7695 16.8828L67.8164 0.394531C67.8164 0.332031 67.8477 0.300781 67.9102 0.300781H70.8398C70.9023 0.300781 70.957 0.332031 71.0039 0.394531L73.1953 3.55859L75.375 0.394531C75.4219 0.332031 75.4805 0.300781 75.5508 0.300781H78.4922C78.5625 0.300781 78.5977 0.332031 78.5977 0.394531L78.6445 16.8828C78.6445 16.9609 78.6133 17 78.5508 17H75.832C75.7695 17 75.7383 16.9609 75.7383 16.8828L75.7148 4.63672L73.1953 8.29297L70.6992 4.63672L70.6758 16.8828C70.6758 16.9609 70.6445 17 70.582 17ZM79.8516 16.8828L82.8281 0.394531C82.8438 0.332031 82.8828 0.300781 82.9453 0.300781H86.4258C86.4883 0.300781 86.5273 0.332031 86.543 0.394531L89.4023 16.8828C89.4102 16.9609 89.3789 17 89.3086 17H86.6484C86.5703 17 86.5273 16.9609 86.5195 16.8828L86.2617 15.125H82.9922L82.7344 16.8828C82.7266 16.9609 82.6875 17 82.6172 17H79.9453C79.8828 17 79.8516 16.9609 79.8516 16.8828ZM84.5508 5.82031L83.4727 12.5586H85.7812L84.7969 5.82031L84.6562 4.92969L84.5508 5.82031ZM93.7148 17H90.9961C90.9336 17 90.9023 16.9609 90.9023 16.8828L90.9492 0.394531C90.9492 0.332031 90.9805 0.300781 91.043 0.300781H95.8945C96.7617 0.300781 97.5586 0.511719 98.2852 0.933594C99.0117 1.35547 99.5898 1.92188 100.02 2.63281C100.457 3.34375 100.676 4.14844 100.676 5.04688C100.676 5.63281 100.586 6.16406 100.406 6.64062C100.227 7.11719 100.016 7.51953 99.7734 7.84766C99.5391 8.17578 99.3242 8.41797 99.1289 8.57422C99.9961 9.53516 100.43 10.6641 100.43 11.9609L100.453 16.8828C100.453 16.9609 100.414 17 100.336 17H97.6172C97.5547 17 97.5234 16.9766 97.5234 16.9297V11.9609C97.5234 11.3828 97.3203 10.8828 96.9141 10.4609C96.5078 10.0391 96.0078 9.82812 95.4141 9.82812H93.832L93.8086 16.8828C93.8086 16.9609 93.7773 17 93.7148 17ZM95.8945 3.17188H93.832V6.94531H95.8945C96.3867 6.94531 96.8242 6.76172 97.207 6.39453C97.5977 6.02734 97.793 5.57812 97.793 5.04688C97.793 4.53906 97.6055 4.10156 97.2305 3.73438C96.8555 3.35938 96.4102 3.17188 95.8945 3.17188ZM107.602 17H104.895C104.824 17 104.789 16.9609 104.789 16.8828V3.19531H101.672C101.594 3.19531 101.555 3.15625 101.555 3.07812L101.578 0.394531C101.578 0.332031 101.609 0.300781 101.672 0.300781H110.789C110.875 0.300781 110.918 0.332031 110.918 0.394531V3.07812C110.918 3.15625 110.887 3.19531 110.824 3.19531H107.672L107.695 16.8828C107.695 16.9609 107.664 17 107.602 17Z" fill="#616161"/>
</svg>
