<svg width="223" height="87" viewBox="0 0 223 87" fill="none" xmlns="http://www.w3.org/2000/svg">
<path d="M7.52344 59H2.08594C1.96094 59 1.89844 58.9219 1.89844 58.7656L1.99219 25.7891C1.99219 25.6641 2.05469 25.6016 2.17969 25.6016H8.03906C8.16406 25.6016 8.27344 25.6641 8.36719 25.7891L12.75 32.1172L17.1094 25.7891C17.2031 25.6641 17.3203 25.6016 17.4609 25.6016H23.3438C23.4844 25.6016 23.5547 25.6641 23.5547 25.7891L23.6484 58.7656C23.6484 58.9219 23.5859 59 23.4609 59H18.0234C17.8984 59 17.8359 58.9219 17.8359 58.7656L17.7891 34.2734L12.75 41.5859L7.75781 34.2734L7.71094 58.7656C7.71094 58.9219 7.64844 59 7.52344 59ZM26.0625 58.7656L32.0156 25.7891C32.0469 25.6641 32.125 25.6016 32.25 25.6016H39.2109C39.3359 25.6016 39.4141 25.6641 39.4453 25.7891L45.1641 58.7656C45.1797 58.9219 45.1172 59 44.9766 59H39.6562C39.5 59 39.4141 58.9219 39.3984 58.7656L38.8828 55.25H32.3438L31.8281 58.7656C31.8125 58.9219 31.7344 59 31.5938 59H26.25C26.125 59 26.0625 58.9219 26.0625 58.7656ZM35.4609 36.6406L33.3047 50.1172H37.9219L35.9531 36.6406L35.6719 34.8594L35.4609 36.6406ZM57 58.9531L48.3984 59C48.2422 59 48.1641 58.9219 48.1641 58.7656L48.2578 25.7891C48.2578 25.6641 48.3203 25.6016 48.4453 25.6016L57.4219 25.5547C59.2031 25.5078 60.8125 25.9141 62.25 26.7734C63.7031 27.6328 64.8594 28.7969 65.7188 30.2656C66.5938 31.7188 67.0312 33.3281 67.0312 35.0938V48.875C67.0312 50.7188 66.5859 52.4062 65.6953 53.9375C64.7891 55.4531 63.5859 56.6641 62.0859 57.5703C60.5859 58.4609 58.8906 58.9219 57 58.9531ZM57.4219 31.2969L54.0703 31.3438L54.0234 53.0938H57C58.1875 53.0938 59.1875 52.6797 60 51.8516C60.8125 51.0234 61.2188 50.0312 61.2188 48.875V35.0469C61.2188 34.0312 60.8438 33.1484 60.0938 32.3984C59.3438 31.6328 58.4531 31.2656 57.4219 31.2969ZM79.6406 59.4688C77.9531 59.4688 76.3906 59.0312 74.9531 58.1562C73.5156 57.2812 72.3672 56.1094 71.5078 54.6406C70.6641 53.1562 70.2422 51.5391 70.2422 49.7891L70.3359 25.7891C70.3359 25.6641 70.3984 25.6016 70.5234 25.6016H75.9141C76.0391 25.6016 76.1016 25.6641 76.1016 25.7891V49.7891C76.1016 50.8672 76.4453 51.7891 77.1328 52.5547C77.8203 53.3047 78.6562 53.6797 79.6406 53.6797C80.6719 53.6797 81.5312 53.3047 82.2188 52.5547C82.9062 51.7891 83.25 50.8672 83.25 49.7891V25.7891C83.25 25.6641 83.3125 25.6016 83.4375 25.6016H88.8281C88.9531 25.6016 89.0156 25.6641 89.0156 25.7891L89.1094 49.7891C89.1094 51.5547 88.6875 53.1797 87.8438 54.6641C86.9844 56.1328 85.8438 57.3047 84.4219 58.1797C83 59.0391 81.4062 59.4688 79.6406 59.4688ZM98.5078 59H93.0703C92.9453 59 92.8828 58.9219 92.8828 58.7656L92.9766 25.7891C92.9766 25.6641 93.0391 25.6016 93.1641 25.6016H102.867C104.602 25.6016 106.195 26.0234 107.648 26.8672C109.102 27.7109 110.258 28.8438 111.117 30.2656C111.992 31.6875 112.43 33.2969 112.43 35.0938C112.43 36.2656 112.25 37.3281 111.891 38.2812C111.531 39.2344 111.109 40.0391 110.625 40.6953C110.156 41.3516 109.727 41.8359 109.336 42.1484C111.07 44.0703 111.938 46.3281 111.938 48.9219L111.984 58.7656C111.984 58.9219 111.906 59 111.75 59H106.312C106.188 59 106.125 58.9531 106.125 58.8594V48.9219C106.125 47.7656 105.719 46.7656 104.906 45.9219C104.094 45.0781 103.094 44.6562 101.906 44.6562H98.7422L98.6953 58.7656C98.6953 58.9219 98.6328 59 98.5078 59ZM102.867 31.3438H98.7422V38.8906H102.867C103.852 38.8906 104.727 38.5234 105.492 37.7891C106.273 37.0547 106.664 36.1562 106.664 35.0938C106.664 34.0781 106.289 33.2031 105.539 32.4688C104.789 31.7188 103.898 31.3438 102.867 31.3438ZM113.438 58.7656L119.391 25.7891C119.422 25.6641 119.5 25.6016 119.625 25.6016H126.586C126.711 25.6016 126.789 25.6641 126.82 25.7891L132.539 58.7656C132.555 58.9219 132.492 59 132.352 59H127.031C126.875 59 126.789 58.9219 126.773 58.7656L126.258 55.25H119.719L119.203 58.7656C119.188 58.9219 119.109 59 118.969 59H113.625C113.5 59 113.438 58.9219 113.438 58.7656ZM122.836 36.6406L120.68 50.1172H125.297L123.328 36.6406L123.047 34.8594L122.836 36.6406Z" fill="#3C91A4"/>
<path d="M141.164 59H135.727C135.602 59 135.539 58.9219 135.539 58.7656L135.633 25.7891C135.633 25.6641 135.695 25.6016 135.82 25.6016H141.68C141.805 25.6016 141.914 25.6641 142.008 25.7891L146.391 32.1172L150.75 25.7891C150.844 25.6641 150.961 25.6016 151.102 25.6016H156.984C157.125 25.6016 157.195 25.6641 157.195 25.7891L157.289 58.7656C157.289 58.9219 157.227 59 157.102 59H151.664C151.539 59 151.477 58.9219 151.477 58.7656L151.43 34.2734L146.391 41.5859L141.398 34.2734L141.352 58.7656C141.352 58.9219 141.289 59 141.164 59ZM159.703 58.7656L165.656 25.7891C165.688 25.6641 165.766 25.6016 165.891 25.6016H172.852C172.977 25.6016 173.055 25.6641 173.086 25.7891L178.805 58.7656C178.82 58.9219 178.758 59 178.617 59H173.297C173.141 59 173.055 58.9219 173.039 58.7656L172.523 55.25H165.984L165.469 58.7656C165.453 58.9219 165.375 59 165.234 59H159.891C159.766 59 159.703 58.9219 159.703 58.7656ZM169.102 36.6406L166.945 50.1172H171.562L169.594 36.6406L169.312 34.8594L169.102 36.6406ZM187.43 59H181.992C181.867 59 181.805 58.9219 181.805 58.7656L181.898 25.7891C181.898 25.6641 181.961 25.6016 182.086 25.6016H191.789C193.523 25.6016 195.117 26.0234 196.57 26.8672C198.023 27.7109 199.18 28.8438 200.039 30.2656C200.914 31.6875 201.352 33.2969 201.352 35.0938C201.352 36.2656 201.172 37.3281 200.812 38.2812C200.453 39.2344 200.031 40.0391 199.547 40.6953C199.078 41.3516 198.648 41.8359 198.258 42.1484C199.992 44.0703 200.859 46.3281 200.859 48.9219L200.906 58.7656C200.906 58.9219 200.828 59 200.672 59H195.234C195.109 59 195.047 58.9531 195.047 58.8594V48.9219C195.047 47.7656 194.641 46.7656 193.828 45.9219C193.016 45.0781 192.016 44.6562 190.828 44.6562H187.664L187.617 58.7656C187.617 58.9219 187.555 59 187.43 59ZM191.789 31.3438H187.664V38.8906H191.789C192.773 38.8906 193.648 38.5234 194.414 37.7891C195.195 37.0547 195.586 36.1562 195.586 35.0938C195.586 34.0781 195.211 33.2031 194.461 32.4688C193.711 31.7188 192.82 31.3438 191.789 31.3438ZM215.203 59H209.789C209.648 59 209.578 58.9219 209.578 58.7656V31.3906H203.344C203.188 31.3906 203.109 31.3125 203.109 31.1562L203.156 25.7891C203.156 25.6641 203.219 25.6016 203.344 25.6016H221.578C221.75 25.6016 221.836 25.6641 221.836 25.7891V31.1562C221.836 31.3125 221.773 31.3906 221.648 31.3906H215.344L215.391 58.7656C215.391 58.9219 215.328 59 215.203 59Z" fill="#616161"/>
<path d="M34.79 72H32.8188C32.7902 72 32.7759 71.9821 32.7759 71.9463L32.7974 64.3892C32.7974 64.3605 32.8117 64.3462 32.8403 64.3462H34.9565C35.3683 64.3462 35.7425 64.4465 36.0791 64.647C36.4085 64.8475 36.6681 65.1143 36.8579 65.4473C37.0477 65.7767 37.1426 66.1348 37.1426 66.5215C37.1426 66.8366 37.071 67.1302 36.9277 67.4023C36.7845 67.6745 36.6144 67.8947 36.4175 68.063C36.6287 68.2743 36.7935 68.5195 36.9116 68.7988C37.0298 69.0781 37.0889 69.3717 37.0889 69.6797C37.0889 70.1058 36.9868 70.4943 36.7827 70.8452C36.575 71.1961 36.2975 71.4772 35.9502 71.6885C35.6029 71.8962 35.2161 72 34.79 72ZM34.9565 65.6514H34.1187V67.3809H34.9565C35.2108 67.3809 35.4167 67.2913 35.5742 67.1123C35.7318 66.9297 35.8105 66.7327 35.8105 66.5215C35.8105 66.2887 35.7264 66.0864 35.5581 65.9146C35.3898 65.7391 35.1893 65.6514 34.9565 65.6514ZM34.79 68.7129H34.1187L34.1079 70.6572H34.79C35.055 70.6572 35.2824 70.5605 35.4722 70.3672C35.6619 70.1738 35.7568 69.9447 35.7568 69.6797C35.7568 69.4147 35.6619 69.1873 35.4722 68.9976C35.2824 68.8078 35.055 68.7129 34.79 68.7129ZM39.9033 72.1074C39.5166 72.1074 39.1585 72.0072 38.8291 71.8066C38.4997 71.6061 38.2365 71.3376 38.0396 71.001C37.8462 70.6608 37.7495 70.2902 37.7495 69.8892L37.771 64.3892C37.771 64.3605 37.7853 64.3462 37.814 64.3462H39.0493C39.078 64.3462 39.0923 64.3605 39.0923 64.3892V69.8892C39.0923 70.1362 39.1711 70.3475 39.3286 70.5229C39.4862 70.6948 39.6777 70.7808 39.9033 70.7808C40.1396 70.7808 40.3366 70.6948 40.4941 70.5229C40.6517 70.3475 40.7305 70.1362 40.7305 69.8892V64.3892C40.7305 64.3605 40.7448 64.3462 40.7734 64.3462H42.0088C42.0374 64.3462 42.0518 64.3605 42.0518 64.3892L42.0732 69.8892C42.0732 70.2938 41.9766 70.6662 41.7832 71.0063C41.5863 71.3429 41.3249 71.6115 40.999 71.812C40.6732 72.009 40.3079 72.1074 39.9033 72.1074ZM44.2271 72H42.981C42.9523 72 42.938 71.9821 42.938 71.9463L42.9595 64.3999C42.9595 64.3641 42.9738 64.3462 43.0024 64.3462H44.2378C44.2664 64.3462 44.2808 64.3641 44.2808 64.3999V67.0049L46.0049 64.3892C46.0335 64.3605 46.0604 64.3462 46.0854 64.3462H47.3477C47.3799 64.3462 47.387 64.3605 47.3691 64.3892L45.4678 67.4238L47.6001 71.957C47.618 71.9857 47.6001 72 47.5464 72H46.2036C46.1678 72 46.1463 71.9857 46.1392 71.957L44.6514 68.7236L44.27 69.3252V71.9463C44.27 71.9821 44.2557 72 44.2271 72ZM47.7236 71.9463L49.0879 64.3892C49.0951 64.3605 49.113 64.3462 49.1416 64.3462H50.7368C50.7655 64.3462 50.7834 64.3605 50.7905 64.3892L52.1011 71.9463C52.1047 71.9821 52.0903 72 52.0581 72H50.8389C50.8031 72 50.7834 71.9821 50.7798 71.9463L50.6616 71.1406H49.1631L49.0449 71.9463C49.0413 71.9821 49.0234 72 48.9912 72H47.7666C47.738 72 47.7236 71.9821 47.7236 71.9463ZM49.8774 66.876L49.3833 69.9644H50.4414L49.9902 66.876L49.9258 66.4678L49.8774 66.876ZM59.5938 72H55.4902C55.4544 72 55.4365 71.9821 55.4365 71.9463V70.7002C55.4365 70.6859 55.4437 70.6715 55.458 70.6572L58.1758 66.9297C58.2259 66.8617 58.2671 66.7757 58.2993 66.6719C58.3351 66.5645 58.353 66.4714 58.353 66.3926C58.353 66.1777 58.276 65.9808 58.1221 65.8018C57.9681 65.6227 57.7729 65.5332 57.5366 65.5332C57.311 65.5332 57.1195 65.6191 56.9619 65.791C56.8044 65.9629 56.7256 66.1813 56.7256 66.4463V66.9834C56.7256 67.0192 56.7077 67.0371 56.6719 67.0371H55.4365C55.4079 67.0371 55.3936 67.0192 55.3936 66.9834V66.4463C55.3936 66.0345 55.4956 65.6603 55.6997 65.3237C55.9002 64.9871 56.1634 64.7204 56.4893 64.5234C56.8151 64.3229 57.1642 64.2227 57.5366 64.2227C57.9305 64.2227 58.2904 64.3229 58.6162 64.5234C58.9385 64.7275 59.1963 64.9943 59.3896 65.3237C59.5866 65.6532 59.6851 66.0094 59.6851 66.3926C59.6851 66.6325 59.6421 66.8778 59.5562 67.1284C59.4738 67.3755 59.3592 67.5957 59.2124 67.7891L57.123 70.6572H59.5938C59.626 70.6572 59.6421 70.6715 59.6421 70.7002V71.9463C59.6421 71.9821 59.626 72 59.5938 72ZM62.4512 72.1074C62.0609 72.1074 61.7028 72.009 61.377 71.812C61.0475 71.6151 60.7826 71.3537 60.582 71.0278C60.3851 70.702 60.2866 70.3475 60.2866 69.9644V69.6367C60.2866 69.6045 60.3045 69.5884 60.3403 69.5884H61.5864C61.6151 69.5884 61.6294 69.6045 61.6294 69.6367V69.8892C61.6294 70.1362 61.71 70.3457 61.8711 70.5176C62.0322 70.6859 62.2256 70.77 62.4512 70.77C62.6803 70.77 62.8737 70.6841 63.0312 70.5122C63.1888 70.3368 63.2676 70.1291 63.2676 69.8892V69.1426C63.2676 68.9134 63.1852 68.7218 63.0205 68.5679C62.8558 68.4139 62.6517 68.3369 62.4082 68.3369C62.0931 68.3369 61.8335 68.4622 61.6294 68.7129L61.6079 68.7451L60.4316 68.6538C60.3923 68.6538 60.3726 68.6359 60.3726 68.6001L60.5068 65.5869L60.5713 64.3892C60.5713 64.3605 60.5856 64.3462 60.6143 64.3462H64.3149C64.3436 64.3462 64.3579 64.3605 64.3579 64.3892V65.5869C64.3579 65.6227 64.3436 65.6406 64.3149 65.6406H61.7368L61.6831 67.1606C61.7726 67.1177 61.889 67.0819 62.0322 67.0532C62.1755 67.021 62.3044 67.0049 62.4189 67.0049C62.8164 67.0049 63.1816 67.1016 63.5146 67.2949C63.8477 67.4919 64.1126 67.7515 64.3096 68.0737C64.5101 68.396 64.6104 68.7523 64.6104 69.1426V69.8892C64.6104 70.2866 64.5137 70.6554 64.3203 70.9956C64.1234 71.3322 63.862 71.6025 63.5361 71.8066C63.2103 72.0072 62.8486 72.1074 62.4512 72.1074ZM66.3076 72H65.1851C65.1528 72 65.1385 71.9821 65.1421 71.9463L66.5063 64.3892C66.5135 64.3605 66.5314 64.3462 66.5601 64.3462H67.7041C67.7399 64.3462 67.7542 64.3605 67.7471 64.3892L66.3613 71.9463C66.3577 71.9821 66.3398 72 66.3076 72ZM70.4595 72H69.1006C69.0684 72 69.0594 71.9821 69.0737 71.9463L71.3403 65.6406H68.3379C68.3092 65.6406 68.2949 65.6263 68.2949 65.5977V64.3999C68.2949 64.3641 68.3092 64.3462 68.3379 64.3462H72.5972C72.6258 64.3462 72.6401 64.3641 72.6401 64.3999V65.6299L70.5293 71.9463C70.515 71.9821 70.4917 72 70.4595 72ZM78.2744 71.9893L76.3032 72C76.2674 72 76.2495 71.9821 76.2495 71.9463L76.271 64.3892C76.271 64.3605 76.2853 64.3462 76.314 64.3462L78.3711 64.3354C78.7793 64.3247 79.1481 64.4178 79.4775 64.6147C79.8105 64.8117 80.0755 65.0785 80.2725 65.415C80.473 65.748 80.5732 66.1169 80.5732 66.5215V69.6797C80.5732 70.1022 80.4712 70.4889 80.2671 70.8398C80.0594 71.1872 79.7837 71.4647 79.4399 71.6724C79.0962 71.8765 78.7077 71.9821 78.2744 71.9893ZM78.3711 65.6514L77.603 65.6621L77.5923 70.6465H78.2744C78.5465 70.6465 78.7757 70.5516 78.9619 70.3618C79.1481 70.172 79.2412 69.9447 79.2412 69.6797V66.5107C79.2412 66.278 79.1553 66.0757 78.9834 65.9038C78.8115 65.7284 78.6074 65.6442 78.3711 65.6514ZM81.0674 71.9463L82.4316 64.3892C82.4388 64.3605 82.4567 64.3462 82.4854 64.3462H84.0806C84.1092 64.3462 84.1271 64.3605 84.1343 64.3892L85.4448 71.9463C85.4484 71.9821 85.4341 72 85.4019 72H84.1826C84.1468 72 84.1271 71.9821 84.1235 71.9463L84.0054 71.1406H82.5068L82.3887 71.9463C82.3851 71.9821 82.3672 72 82.335 72H81.1104C81.0817 72 81.0674 71.9821 81.0674 71.9463ZM83.2212 66.876L82.7271 69.9644H83.7852L83.334 66.876L83.2695 66.4678L83.2212 66.876ZM87.3301 72H86.229C86.1717 72 86.1431 71.9749 86.1431 71.9248L86.1323 64.4321C86.1323 64.3748 86.161 64.3462 86.2183 64.3462H87.2119L89.0703 68.6807L89.0166 64.4321C89.0166 64.3748 89.0488 64.3462 89.1133 64.3462H90.2036C90.2466 64.3462 90.2681 64.3748 90.2681 64.4321L90.2788 71.9355C90.2788 71.9785 90.2609 72 90.2251 72H89.2583L87.3516 67.9502L87.4321 71.9141C87.4321 71.9714 87.3981 72 87.3301 72ZM96.4395 72H95.1987C95.1665 72 95.1504 71.9821 95.1504 71.9463V65.6729H93.7217C93.6859 65.6729 93.668 65.6549 93.668 65.6191L93.6787 64.3892C93.6787 64.3605 93.693 64.3462 93.7217 64.3462H97.9004C97.9398 64.3462 97.9595 64.3605 97.9595 64.3892V65.6191C97.9595 65.6549 97.9451 65.6729 97.9165 65.6729H96.4717L96.4824 71.9463C96.4824 71.9821 96.4681 72 96.4395 72ZM100.521 72.1074C100.135 72.1074 99.7767 72.0072 99.4473 71.8066C99.1178 71.6061 98.8547 71.3376 98.6577 71.001C98.4644 70.6608 98.3677 70.2902 98.3677 69.8892L98.3892 64.3892C98.3892 64.3605 98.4035 64.3462 98.4321 64.3462H99.6675C99.6961 64.3462 99.7104 64.3605 99.7104 64.3892V69.8892C99.7104 70.1362 99.7892 70.3475 99.9468 70.5229C100.104 70.6948 100.296 70.7808 100.521 70.7808C100.758 70.7808 100.955 70.6948 101.112 70.5229C101.27 70.3475 101.349 70.1362 101.349 69.8892V64.3892C101.349 64.3605 101.363 64.3462 101.392 64.3462H102.627C102.656 64.3462 102.67 64.3605 102.67 64.3892L102.691 69.8892C102.691 70.2938 102.595 70.6662 102.401 71.0063C102.204 71.3429 101.943 71.6115 101.617 71.812C101.291 72.009 100.926 72.1074 100.521 72.1074ZM105.903 72H104.663C104.63 72 104.614 71.9821 104.614 71.9463V65.6729H103.186C103.15 65.6729 103.132 65.6549 103.132 65.6191L103.143 64.3892C103.143 64.3605 103.157 64.3462 103.186 64.3462H107.364C107.404 64.3462 107.423 64.3605 107.423 64.3892V65.6191C107.423 65.6549 107.409 65.6729 107.38 65.6729H105.936L105.946 71.9463C105.946 71.9821 105.932 72 105.903 72ZM109.985 72.1074C109.599 72.1074 109.241 72.0072 108.911 71.8066C108.582 71.6061 108.319 71.3376 108.122 71.001C107.928 70.6608 107.832 70.2902 107.832 69.8892L107.853 64.3892C107.853 64.3605 107.867 64.3462 107.896 64.3462H109.131C109.16 64.3462 109.174 64.3605 109.174 64.3892V69.8892C109.174 70.1362 109.253 70.3475 109.411 70.5229C109.568 70.6948 109.76 70.7808 109.985 70.7808C110.222 70.7808 110.419 70.6948 110.576 70.5229C110.734 70.3475 110.812 70.1362 110.812 69.8892V64.3892C110.812 64.3605 110.827 64.3462 110.855 64.3462H112.091C112.119 64.3462 112.134 64.3605 112.134 64.3892L112.155 69.8892C112.155 70.2938 112.059 70.6662 111.865 71.0063C111.668 71.3429 111.407 71.6115 111.081 71.812C110.755 72.009 110.39 72.1074 109.985 72.1074ZM114.309 72H113.074C113.038 72 113.02 71.9821 113.02 71.9463L113.042 64.3892C113.042 64.3605 113.056 64.3462 113.084 64.3462H115.201C115.874 64.3462 116.406 64.5521 116.796 64.9639C117.19 65.3721 117.387 65.9289 117.387 66.6343C117.387 67.1499 117.285 67.5993 117.081 67.9824C116.873 68.362 116.604 68.6556 116.275 68.8633C115.945 69.071 115.587 69.1748 115.201 69.1748H114.363V71.9463C114.363 71.9821 114.345 72 114.309 72ZM115.201 65.6514L114.363 65.6621V67.8428H115.201C115.433 67.8428 115.636 67.7318 115.808 67.5098C115.979 67.2842 116.065 66.9924 116.065 66.6343C116.065 66.3478 115.988 66.1133 115.834 65.9307C115.681 65.7445 115.469 65.6514 115.201 65.6514ZM122.28 72H121.044C121.009 72 120.991 71.9821 120.991 71.9463L121.012 64.3892C121.012 64.3605 121.027 64.3462 121.055 64.3462H123.171C123.845 64.3462 124.376 64.5521 124.767 64.9639C125.16 65.3721 125.357 65.9289 125.357 66.6343C125.357 67.1499 125.255 67.5993 125.051 67.9824C124.844 68.362 124.575 68.6556 124.246 68.8633C123.916 69.071 123.558 69.1748 123.171 69.1748H122.333V71.9463C122.333 71.9821 122.316 72 122.28 72ZM123.171 65.6514L122.333 65.6621V67.8428H123.171C123.404 67.8428 123.606 67.7318 123.778 67.5098C123.95 67.2842 124.036 66.9924 124.036 66.6343C124.036 66.3478 123.959 66.1133 123.805 65.9307C123.651 65.7445 123.44 65.6514 123.171 65.6514ZM125.733 71.9463L127.098 64.3892C127.105 64.3605 127.123 64.3462 127.151 64.3462H128.747C128.775 64.3462 128.793 64.3605 128.8 64.3892L130.111 71.9463C130.114 71.9821 130.1 72 130.068 72H128.849C128.813 72 128.793 71.9821 128.79 71.9463L128.671 71.1406H127.173L127.055 71.9463C127.051 71.9821 127.033 72 127.001 72H125.776C125.748 72 125.733 71.9821 125.733 71.9463ZM127.887 66.876L127.393 69.9644H128.451L128 66.876L127.936 66.4678L127.887 66.876ZM132.823 71.9893L130.852 72C130.816 72 130.798 71.9821 130.798 71.9463L130.82 64.3892C130.82 64.3605 130.834 64.3462 130.863 64.3462L132.92 64.3354C133.328 64.3247 133.697 64.4178 134.026 64.6147C134.359 64.8117 134.624 65.0785 134.821 65.415C135.022 65.748 135.122 66.1169 135.122 66.5215V69.6797C135.122 70.1022 135.02 70.4889 134.816 70.8398C134.608 71.1872 134.333 71.4647 133.989 71.6724C133.645 71.8765 133.257 71.9821 132.823 71.9893ZM132.92 65.6514L132.152 65.6621L132.141 70.6465H132.823C133.095 70.6465 133.325 70.5516 133.511 70.3618C133.697 70.172 133.79 69.9447 133.79 69.6797V66.5107C133.79 66.278 133.704 66.0757 133.532 65.9038C133.36 65.7284 133.156 65.6442 132.92 65.6514ZM135.616 71.9463L136.98 64.3892C136.988 64.3605 137.006 64.3462 137.034 64.3462H138.629C138.658 64.3462 138.676 64.3605 138.683 64.3892L139.994 71.9463C139.997 71.9821 139.983 72 139.951 72H138.731C138.696 72 138.676 71.9821 138.672 71.9463L138.554 71.1406H137.056L136.938 71.9463C136.934 71.9821 136.916 72 136.884 72H135.659C135.631 72 135.616 71.9821 135.616 71.9463ZM137.77 66.876L137.276 69.9644H138.334L137.883 66.876L137.818 66.4678L137.77 66.876ZM144.828 72H143.582C143.553 72 143.539 71.9821 143.539 71.9463L143.549 64.3892C143.549 64.3605 143.567 64.3462 143.603 64.3462H144.828C144.863 64.3462 144.881 64.3605 144.881 64.3892L144.871 67.3809H146.52V64.3892C146.52 64.3605 146.534 64.3462 146.562 64.3462H147.787C147.823 64.3462 147.841 64.3605 147.841 64.3892L147.862 71.9463C147.862 71.9821 147.844 72 147.809 72H146.573C146.537 72 146.52 71.9821 146.52 71.9463V68.7129H144.871V71.9463C144.871 71.9821 144.856 72 144.828 72ZM148.389 71.9463L149.753 64.3892C149.76 64.3605 149.778 64.3462 149.807 64.3462H151.402C151.431 64.3462 151.448 64.3605 151.456 64.3892L152.766 71.9463C152.77 71.9821 152.755 72 152.723 72H151.504C151.468 72 151.448 71.9821 151.445 71.9463L151.327 71.1406H149.828L149.71 71.9463C149.706 71.9821 149.688 72 149.656 72H148.432C148.403 72 148.389 71.9821 148.389 71.9463ZM150.542 66.876L150.048 69.9644H151.106L150.655 66.876L150.591 66.4678L150.542 66.876ZM154.743 72H153.497C153.468 72 153.454 71.9821 153.454 71.9463L153.475 64.3892C153.475 64.3605 153.489 64.3462 153.518 64.3462H155.742C156.139 64.3462 156.504 64.4429 156.837 64.6362C157.17 64.8296 157.435 65.0892 157.632 65.415C157.833 65.7409 157.933 66.1097 157.933 66.5215C157.933 66.79 157.892 67.0335 157.81 67.252C157.727 67.4704 157.631 67.6548 157.52 67.8052C157.412 67.9556 157.314 68.0666 157.224 68.1382C157.622 68.5786 157.82 69.096 157.82 69.6904L157.831 71.9463C157.831 71.9821 157.813 72 157.777 72H156.531C156.503 72 156.488 71.9893 156.488 71.9678V69.6904C156.488 69.4255 156.395 69.1963 156.209 69.0029C156.023 68.8096 155.794 68.7129 155.521 68.7129H154.796L154.786 71.9463C154.786 71.9821 154.771 72 154.743 72ZM155.742 65.6621H154.796V67.3916H155.742C155.967 67.3916 156.168 67.3075 156.343 67.1392C156.522 66.9709 156.612 66.765 156.612 66.5215C156.612 66.2887 156.526 66.0882 156.354 65.9199C156.182 65.748 155.978 65.6621 155.742 65.6621ZM160.06 72H158.814C158.778 72 158.76 71.9821 158.76 71.9463L158.771 64.3892C158.771 64.3605 158.785 64.3462 158.814 64.3462H160.049C160.078 64.3462 160.092 64.3605 160.092 64.3892L160.103 71.9463C160.103 71.9821 160.089 72 160.06 72ZM165.216 72H163.97C163.942 72 163.927 71.9821 163.927 71.9463L163.949 64.3999C163.949 64.3641 163.963 64.3462 163.992 64.3462H165.227C165.256 64.3462 165.27 64.3641 165.27 64.3999V67.0049L166.994 64.3892C167.023 64.3605 167.05 64.3462 167.075 64.3462H168.337C168.369 64.3462 168.376 64.3605 168.358 64.3892L166.457 67.4238L168.589 71.957C168.607 71.9857 168.589 72 168.536 72H167.193C167.157 72 167.136 71.9857 167.128 71.957L165.641 68.7236L165.259 69.3252V71.9463C165.259 71.9821 165.245 72 165.216 72ZM170.383 72H169.137C169.101 72 169.083 71.9821 169.083 71.9463L169.094 64.3892C169.094 64.3605 169.109 64.3462 169.137 64.3462H170.373C170.401 64.3462 170.416 64.3605 170.416 64.3892L170.426 71.9463C170.426 71.9821 170.412 72 170.383 72ZM171.022 71.9463L172.387 64.3892C172.394 64.3605 172.412 64.3462 172.44 64.3462H174.036C174.064 64.3462 174.082 64.3605 174.089 64.3892L175.4 71.9463C175.403 71.9821 175.389 72 175.357 72H174.138C174.102 72 174.082 71.9821 174.079 71.9463L173.96 71.1406H172.462L172.344 71.9463C172.34 71.9821 172.322 72 172.29 72H171.065C171.037 72 171.022 71.9821 171.022 71.9463ZM173.176 66.876L172.682 69.9644H173.74L173.289 66.876L173.225 66.4678L173.176 66.876ZM177.376 72H176.13C176.102 72 176.087 71.9821 176.087 71.9463L176.109 64.3892C176.109 64.3605 176.123 64.3462 176.152 64.3462H177.495C177.523 64.3462 177.548 64.3605 177.57 64.3892L178.574 65.8394L179.573 64.3892C179.595 64.3605 179.622 64.3462 179.654 64.3462H181.002C181.034 64.3462 181.05 64.3605 181.05 64.3892L181.072 71.9463C181.072 71.9821 181.057 72 181.029 72H179.783C179.754 72 179.74 71.9821 179.74 71.9463L179.729 66.3335L178.574 68.0093L177.43 66.3335L177.419 71.9463C177.419 71.9821 177.405 72 177.376 72ZM181.625 71.9463L182.989 64.3892C182.996 64.3605 183.014 64.3462 183.043 64.3462H184.638C184.667 64.3462 184.685 64.3605 184.692 64.3892L186.002 71.9463C186.006 71.9821 185.992 72 185.959 72H184.74C184.704 72 184.685 71.9821 184.681 71.9463L184.563 71.1406H183.064L182.946 71.9463C182.943 71.9821 182.925 72 182.893 72H181.668C181.639 72 181.625 71.9821 181.625 71.9463ZM183.779 66.876L183.285 69.9644H184.343L183.892 66.876L183.827 66.4678L183.779 66.876ZM189.037 72H187.796C187.764 72 187.748 71.9821 187.748 71.9463V65.6729H186.319C186.284 65.6729 186.266 65.6549 186.266 65.6191L186.276 64.3892C186.276 64.3605 186.291 64.3462 186.319 64.3462H190.498C190.537 64.3462 190.557 64.3605 190.557 64.3892V65.6191C190.557 65.6549 190.543 65.6729 190.514 65.6729H189.069L189.08 71.9463C189.08 71.9821 189.066 72 189.037 72Z" fill="#616161"/>
</svg>
