<svg width="18" height="18" viewBox="0 0 18 18" fill="none" xmlns="http://www.w3.org/2000/svg">
<path d="M6.75758 15.9375C6.61508 15.9375 6.47258 15.885 6.36008 15.7725L2.60258 12.015C2.38508 11.7975 2.38508 11.4375 2.60258 11.22C2.82008 11.0025 3.18008 11.0025 3.39758 11.22L7.15508 14.9775C7.37258 15.195 7.37258 15.555 7.15508 15.7725C7.04258 15.8775 6.90008 15.9375 6.75758 15.9375Z" fill="#616161"/>
<path d="M6.75757 15.9375C6.45007 15.9375 6.19507 15.6825 6.19507 15.375V2.625C6.19507 2.3175 6.45007 2.0625 6.75757 2.0625C7.06507 2.0625 7.32007 2.3175 7.32007 2.625V15.375C7.32007 15.6825 7.06507 15.9375 6.75757 15.9375Z" fill="#616161"/>
<path d="M15.0076 6.945C14.8651 6.945 14.7226 6.8925 14.6101 6.78L10.8526 3.0225C10.6351 2.805 10.6351 2.445 10.8526 2.2275C11.0701 2.01 11.4301 2.01 11.6476 2.2275L15.4051 5.985C15.6226 6.2025 15.6226 6.5625 15.4051 6.78C15.2926 6.8925 15.1501 6.945 15.0076 6.945Z" fill="#616161"/>
<path d="M11.2424 15.9375C10.9349 15.9375 10.6799 15.6825 10.6799 15.375V2.625C10.6799 2.3175 10.9349 2.0625 11.2424 2.0625C11.5499 2.0625 11.8049 2.3175 11.8049 2.625V15.375C11.8049 15.6825 11.5574 15.9375 11.2424 15.9375Z" fill="#616161"/>
</svg>
