<svg width="24" height="24" viewBox="0 0 24 24" fill="none" xmlns="http://www.w3.org/2000/svg">
<path d="M11.1201 18.25C10.9301 18.25 10.7401 18.18 10.5901 18.03L9.09006 16.53C8.80006 16.24 8.80006 15.76 9.09006 15.47C9.38006 15.18 9.86006 15.18 10.1501 15.47L11.1401 16.46L13.8601 13.95C14.1601 13.67 14.6401 13.69 14.9201 13.99C15.2001 14.29 15.1801 14.77 14.8801 15.05L11.6301 18.05C11.4901 18.18 11.3101 18.25 11.1201 18.25Z" fill="#3C91A4"/>
<path d="M5.18988 6.38C4.99988 6.38 4.79988 6.3 4.65988 6.16C4.36988 5.87 4.36988 5.39 4.65988 5.1L8.28988 1.47C8.57988 1.18 9.05988 1.18 9.34988 1.47C9.63988 1.76 9.63988 2.24 9.34988 2.53L5.71988 6.16C5.56988 6.3 5.37988 6.38 5.18988 6.38Z" fill="#3C91A4"/>
<path d="M18.8101 6.38C18.6201 6.38 18.4301 6.31 18.2801 6.16L14.6501 2.53C14.3601 2.24 14.3601 1.76 14.6501 1.47C14.9401 1.18 15.4201 1.18 15.7101 1.47L19.3401 5.1C19.6301 5.39 19.6301 5.87 19.3401 6.16C19.2001 6.3 19.0001 6.38 18.8101 6.38Z" fill="#3C91A4"/>
<path d="M20.21 10.6C20.14 10.6 20.07 10.6 20 10.6H19.77H4C3.3 10.61 2.5 10.61 1.92 10.03C1.46 9.58 1.25 8.88 1.25 7.85C1.25 5.1 3.26 5.1 4.22 5.1H19.78C20.74 5.1 22.75 5.1 22.75 7.85C22.75 8.89 22.54 9.58 22.08 10.03C21.56 10.55 20.86 10.6 20.21 10.6ZM4.22 9.1H20.01C20.46 9.11 20.88 9.11 21.02 8.97C21.09 8.9 21.24 8.66 21.24 7.85C21.24 6.72 20.96 6.6 19.77 6.6H4.22C3.03 6.6 2.75 6.72 2.75 7.85C2.75 8.66 2.91 8.9 2.97 8.97C3.11 9.1 3.54 9.1 3.98 9.1H4.22Z" fill="#3C91A4"/>
<path d="M14.89 22.75H8.86C5.28 22.75 4.48 20.62 4.17 18.77L2.76 10.12C2.69 9.71 2.97 9.33 3.38 9.26C3.78 9.19 4.17 9.47 4.24 9.88L5.65 18.52C5.94 20.29 6.54 21.25 8.86 21.25H14.89C17.46 21.25 17.75 20.35 18.08 18.61L19.76 9.86C19.84 9.45 20.23 9.18 20.64 9.27C21.05 9.35 21.31 9.74 21.23 10.15L19.55 18.9C19.16 20.93 18.51 22.75 14.89 22.75Z" fill="#3C91A4"/>
</svg>
